<svg width="250" height="120" viewBox="0 0 250 120" fill="none" xmlns="http://www.w3.org/2000/svg">
<g clip-path="url(#clip0_73192_4222)">
<path d="M210.406 77.3376C210.543 77.0304 210.85 76.8768 211.328 76.8768C211.874 76.8768 212.198 77.0304 212.301 77.3376C212.437 77.6448 212.625 82.1845 212.864 90.9568C213.001 96.2816 213.052 99.8314 213.018 101.606C213.018 103.381 212.915 104.371 212.71 104.576C212.335 104.951 211.959 105.054 211.584 104.883C211.447 104.849 211.345 104.678 211.277 104.371C211.209 104.064 211.14 103.45 211.072 102.528C211.004 101.606 210.953 100.463 210.918 99.0976C210.884 97.6981 210.833 95.7696 210.765 93.312C210.56 85.1541 210.441 80.6826 210.406 79.8976C210.304 78.4981 210.304 77.6448 210.406 77.3376ZM193.459 86.1952C195.883 85.0346 197.487 84.5056 198.272 84.608L199.45 84.7104L199.398 88.9088C199.33 90.9568 199.159 93.2437 198.886 95.7696C198.647 98.2954 198.426 99.9338 198.221 100.685C198.084 101.06 197.76 101.299 197.248 101.402C196.77 101.47 196.446 101.35 196.275 101.043C196.07 100.736 196.19 99.729 196.634 98.0224C196.941 96.7253 197.163 94.7114 197.299 91.9808C197.47 89.2501 197.436 87.7482 197.197 87.4752C196.958 87.2704 196.002 87.4922 194.33 88.1408C192.759 88.6528 191.684 88.9429 191.104 89.0112C190.524 89.0453 190.182 88.8746 190.08 88.4992C190.046 88.2602 190.285 87.9701 190.797 87.6288C191.343 87.2533 192.23 86.7754 193.459 86.1952Z" fill="#29363D"/>
<path d="M158.502 74.7264C158.537 73.4294 158.588 72.6614 158.656 72.4224C158.758 72.1835 159.031 72.0982 159.475 72.1664C159.748 72.2006 159.936 72.2859 160.038 72.4224C160.175 72.5248 160.26 72.7467 160.294 73.088C160.329 73.4294 160.363 74.0267 160.397 74.88C160.397 76.928 160.465 79.6758 160.602 83.1232C160.67 85.8539 160.67 87.4752 160.602 87.9872C160.533 88.4992 160.311 88.7894 159.936 88.8576C159.356 88.9259 158.98 88.7552 158.81 88.3456C158.571 87.7312 158.468 83.1915 158.502 74.7264ZM142.426 78.3616C143.211 77.6448 143.774 77.2182 144.115 77.0816C144.491 76.911 145.105 76.8768 145.958 76.9792C147.085 77.0816 147.989 77.3718 148.672 77.8496C149.321 78.2592 149.73 79.0443 149.901 80.2048C150.106 81.3312 149.986 82.4064 149.542 83.4304C149.235 84.1814 148.706 84.847 147.955 85.4272C147.238 85.9734 146.453 86.3659 145.6 86.6048C144.747 86.8438 143.893 86.912 143.04 86.8096C142.221 86.6731 141.555 86.3488 141.043 85.8368C140.77 85.5638 140.599 85.2224 140.531 84.8128C140.463 84.3691 140.463 83.6352 140.531 82.6112C140.599 81.3824 140.719 80.5632 140.89 80.1536C141.094 79.7099 141.606 79.1126 142.426 78.3616ZM147.648 79.3856C146.59 78.5323 145.429 78.4982 144.166 79.2832C143.654 79.5904 143.296 79.9318 143.091 80.3072C142.886 80.6486 142.733 81.1776 142.63 81.8944C142.562 82.4406 142.528 82.9014 142.528 83.2768C142.562 83.6523 142.647 83.9595 142.784 84.1984C142.955 84.4374 143.159 84.6251 143.398 84.7616C143.671 84.864 144.013 84.9152 144.422 84.9152C145.242 84.9152 145.993 84.591 146.675 83.9424C147.392 83.2598 147.819 82.4576 147.955 81.536C148.092 80.4438 147.989 79.727 147.648 79.3856ZM153.075 93.0048C154.782 92.7659 155.789 92.8171 156.096 93.1584C156.403 93.4656 156.557 94.6944 156.557 96.8448V100.634L155.226 101.197C154.338 101.538 153.365 101.811 152.307 102.016C150.566 102.289 149.355 102.682 148.672 103.194C148.023 103.706 147.699 104.491 147.699 105.549C147.699 106.436 147.989 106.965 148.57 107.136C149.184 107.341 150.464 107.324 152.41 107.085C154.799 106.812 156.198 106.59 156.608 106.419C157.052 106.249 157.359 106.419 157.53 106.931C157.769 107.75 157.649 108.297 157.171 108.57C156.727 108.843 155.533 109.03 153.587 109.133C151.266 109.304 149.559 109.474 148.467 109.645C147.443 109.816 146.709 109.645 146.266 109.133C145.856 108.655 145.651 107.716 145.651 106.317C145.651 104.849 145.754 103.791 145.958 103.142C146.061 102.733 146.59 102.272 147.546 101.76C148.501 101.214 149.628 100.77 150.925 100.429C152.461 99.951 153.365 99.5755 153.638 99.3024C153.946 98.9952 154.099 98.2614 154.099 97.1008C154.099 95.6672 154.014 94.9504 153.843 94.9504C153.536 94.9504 152.887 95.0358 151.898 95.2064C150.908 95.3771 149.884 95.5819 148.826 95.8208C147.802 96.0598 147.051 96.2475 146.573 96.384C145.378 96.7936 144.661 96.9131 144.422 96.7424C144.354 96.7083 144.286 96.623 144.218 96.4864C144.149 96.3499 144.098 96.1963 144.064 96.0256C144.064 95.855 144.064 95.7014 144.064 95.5648C144.064 95.3942 144.081 95.2576 144.115 95.1552C144.149 95.0187 144.201 94.9504 144.269 94.9504C144.303 94.9504 145.481 94.6774 147.802 94.1312C150.089 93.5168 151.846 93.1414 153.075 93.0048Z" fill="#29363D"/>
<path d="M108.442 75.5456C108.442 74.9312 108.459 74.4704 108.493 74.1632C108.527 73.856 108.595 73.6342 108.698 73.4976C108.8 73.327 108.919 73.2587 109.056 73.2928C109.192 73.327 109.397 73.4294 109.67 73.6C110.012 73.8731 110.302 76.4502 110.541 81.3312C110.814 86.1782 110.78 88.7723 110.438 89.1136C110.302 89.2502 110.148 89.3184 109.978 89.3184C109.841 89.3184 109.687 89.2672 109.517 89.1648C109.38 89.0624 109.244 88.9259 109.107 88.7552C108.971 88.5504 108.851 88.3286 108.749 88.0896C108.68 87.8166 108.646 87.5435 108.646 87.2704C108.646 86.6219 108.595 84.8299 108.493 81.8944C108.424 78.6859 108.407 76.5696 108.442 75.5456ZM91.2383 88.3456C90.9311 88.1408 90.8117 86.3659 90.8799 83.0208C90.9823 79.6758 91.1871 77.9008 91.4943 77.696C91.8357 77.4912 93.457 77.3718 96.3583 77.3376C99.2938 77.2694 100.813 77.3376 100.915 77.5424C101.052 77.7814 101.035 79.6075 100.864 83.0208C100.693 86.4 100.523 88.1579 100.352 88.2944C100.181 88.4992 98.6794 88.6187 95.8463 88.6528C93.0474 88.6528 91.5114 88.5504 91.2383 88.3456ZM96.1023 79.2832C94.225 79.2832 93.2181 79.3686 93.0815 79.5392C92.8767 79.7099 92.7743 80.7851 92.7743 82.7648C92.7743 83.9936 92.8255 84.8128 92.9279 85.2224C93.0303 85.632 93.2351 85.9222 93.5423 86.0928C94.0885 86.4 94.9418 86.5536 96.1023 86.5536C97.297 86.5195 98.0479 86.3488 98.3551 86.0416C98.6623 85.7344 98.8159 84.5398 98.8159 82.4576V79.2832H96.1023ZM102.656 94.0288C103.304 93.824 103.799 93.6875 104.141 93.6192C104.482 93.5168 104.823 93.4486 105.165 93.4144C105.506 93.3803 105.745 93.3974 105.882 93.4656C106.052 93.4998 106.189 93.6363 106.291 93.8752C106.428 94.08 106.513 94.3019 106.547 94.5408C106.581 94.7798 106.632 95.1552 106.701 95.6672C106.837 97.1008 106.974 98.2955 107.11 99.2512C107.247 100.105 107.008 100.736 106.394 101.146C105.813 101.521 104.516 101.948 102.502 102.426C100.591 102.869 99.4986 103.33 99.2255 103.808C98.9183 104.354 98.7818 104.952 98.8159 105.6C98.8842 106.283 99.089 106.709 99.4303 106.88C99.7375 107.085 100.83 107.119 102.707 106.982C104.584 106.88 106.018 106.692 107.008 106.419C107.554 106.283 107.861 106.266 107.93 106.368C108.032 106.47 108.066 106.829 108.032 107.443L107.878 108.826L103.629 109.082C100.727 109.286 99.0719 109.457 98.6623 109.594C98.2186 109.696 97.8602 109.662 97.5871 109.491C97.3141 109.321 97.1093 108.979 96.9727 108.467C96.8703 107.989 96.8191 107.273 96.8191 106.317C96.8191 104.576 96.9557 103.484 97.2287 103.04C97.4335 102.63 97.9455 102.204 98.7647 101.76C99.5839 101.282 100.215 101.043 100.659 101.043C101.069 101.043 101.803 100.804 102.861 100.326C103.612 100.019 104.055 99.7632 104.192 99.5584C104.363 99.3195 104.448 98.7734 104.448 97.92C104.448 96.7254 104.277 96.0768 103.936 95.9744C103.595 95.8038 102.383 96.0598 100.301 96.7424C97.8431 97.5275 96.4778 97.8176 96.2047 97.6128C96.1023 97.5104 96.0511 97.3056 96.0511 96.9984C96.0511 96.623 96.4949 96.2475 97.3823 95.872C98.2698 95.4624 100.028 94.848 102.656 94.0288Z" fill="#29363D"/>
<path d="M59.4048 78.5664C59.8485 78.6005 60.1216 78.8224 60.224 79.232C60.3264 79.6074 60.4458 80.6997 60.5824 82.5088C60.753 85.137 60.8554 89.4208 60.8896 95.36C60.9237 101.265 60.8725 104.337 60.736 104.576C60.6336 104.747 60.4288 104.866 60.1216 104.934C59.8485 105.003 59.5754 105.02 59.3024 104.986C59.0293 104.951 58.8928 104.849 58.8928 104.678C58.8928 103.791 58.8416 99.3877 58.7392 91.4688L58.4832 78.4128L59.4048 78.5664ZM41.3824 87.2192C41.2117 84.7957 41.2288 83.5157 41.4336 83.3792C41.5018 83.345 41.6384 83.345 41.8432 83.3792C42.1504 83.4133 42.3722 83.6352 42.5088 84.0448C42.6794 84.4544 42.833 85.2565 42.9696 86.4512L43.3792 89.3696L44.8128 89.1136C44.9834 89.0794 45.2224 89.0453 45.5296 89.0112C46.9973 88.7722 47.8506 88.5504 48.0896 88.3456C48.3285 88.1408 48.465 87.5264 48.4992 86.5024C48.5333 86.4341 48.5504 86.3829 48.5504 86.3488C48.5504 86.2805 48.5504 86.2293 48.5504 86.1952C48.5504 86.1269 48.5504 86.0586 48.5504 85.9904C48.6186 84.8981 48.6869 84.2154 48.7552 83.9424C48.8576 83.6693 49.0965 83.5328 49.472 83.5328C49.8474 83.5328 50.0693 83.857 50.1376 84.5056C50.24 85.1541 50.3253 87.1168 50.3936 90.3936C50.4277 93.4997 50.4106 95.4453 50.3424 96.2304C50.2741 97.0154 50.0864 97.5616 49.7792 97.8688C49.3696 98.2101 48.2944 98.4661 46.5536 98.6368C44.8469 98.8074 43.6352 98.7733 42.9184 98.5344C42.5088 98.3637 42.2357 97.8688 42.0992 97.0496C41.9968 96.1962 41.7749 93.2949 41.4336 88.3456C41.3994 87.8336 41.3824 87.4581 41.3824 87.2192ZM47.168 91.008C46.2464 91.008 45.5808 91.0933 45.1712 91.264C44.7616 91.4005 44.4714 91.6736 44.3008 92.0832C44.1301 92.4586 44.0448 93.073 44.0448 93.9264C44.0448 95.0869 44.1984 95.8208 44.5056 96.128C44.8469 96.4352 45.649 96.5888 46.912 96.5888C47.5605 96.5888 47.9701 96.3669 48.1408 95.9232C48.3456 95.4794 48.448 94.5408 48.448 93.1072V90.9568L47.168 91.008Z" fill="#29363D"/>
<path d="M221.709 16.448C224.337 15.9701 226.01 15.7483 226.726 15.7824L227.75 15.8848V20.6976C227.75 21.9605 227.716 22.9675 227.648 23.7184C227.614 24.4693 227.528 25.0837 227.392 25.5616C227.29 26.0395 227.136 26.3296 226.931 26.432C226.726 26.5003 226.453 26.4832 226.112 26.3808C225.839 26.2784 225.668 26.0053 225.6 25.5616C225.566 25.0837 225.6 24.0085 225.702 22.336C225.805 20.6293 225.822 19.5371 225.754 19.0592C225.719 18.5813 225.566 18.2912 225.293 18.1888C224.747 18.0181 223.245 18.1717 220.787 18.6496C219.217 18.8885 218.159 19.0251 217.613 19.0592C217.101 19.0592 216.759 18.9739 216.589 18.8032C216.247 18.2229 216.316 17.8133 216.794 17.5744C217.374 17.3013 219.012 16.9259 221.709 16.448ZM230.31 29.9136C230.618 29.6064 231.01 29.5893 231.488 29.8624C231.966 30.1013 232.239 30.4939 232.307 31.04C232.307 31.0741 232.307 31.1083 232.307 31.1424C232.375 31.7568 232.102 32.1323 231.488 32.2688C230.874 32.4053 228.672 32.6272 224.883 32.9344C224.371 32.9685 223.979 32.9856 223.706 32.9856C218.961 33.3611 216.162 33.5488 215.309 33.5488C214.49 33.5147 214.08 33.2587 214.08 32.7808C214.08 32.3029 214.541 31.9616 215.462 31.7568C216.384 31.552 218.398 31.3472 221.504 31.1424C223.688 31.0059 225.651 30.8181 227.392 30.5792C229.167 30.3061 230.14 30.0843 230.31 29.9136ZM218.074 38.5664C218.278 38.2251 218.586 38.2592 218.995 38.6688C219.439 39.1467 219.644 40.1536 219.61 41.6896C219.61 41.792 219.61 41.9285 219.61 42.0992C219.61 42.816 219.592 43.3109 219.558 43.584C219.558 43.8571 219.61 44.1643 219.712 44.5056C219.848 44.8469 219.951 45.0517 220.019 45.12C220.122 45.1883 220.378 45.2736 220.787 45.376C221.197 45.4443 221.572 45.4613 221.914 45.4272C222.255 45.3931 222.835 45.3589 223.654 45.3248C223.859 45.3248 224.013 45.3077 224.115 45.2736C226.709 45.1029 228.416 44.9323 229.235 44.7616C229.781 44.6592 230.106 44.6592 230.208 44.7616C230.31 44.864 230.362 45.1883 230.362 45.7344C230.362 46.4512 230.157 46.8949 229.747 47.0656C229.338 47.2704 228.382 47.3557 226.88 47.3216C225.446 47.3216 223.552 47.424 221.197 47.6288C218.773 47.8336 217.51 47.7995 217.408 47.5264C217.271 47.2875 217.306 45.8027 217.51 43.072C217.715 40.3413 217.903 38.8395 218.074 38.5664Z" fill="#29363D"/>
<path d="M167.398 19.008C167.637 18.4277 167.842 18.0864 168.013 17.984C168.184 17.8474 168.457 17.8645 168.832 18.0352C169.344 18.3082 171.068 18.2912 174.003 17.984C177.178 17.6768 178.918 17.745 179.226 18.1888C179.328 18.3936 179.311 18.6666 179.174 19.008C179.106 19.2128 178.936 19.3664 178.662 19.4688C178.424 19.537 178.031 19.5882 177.485 19.6224C176.973 19.6565 176.205 19.6906 175.181 19.7248C172.587 19.7589 170.948 19.8613 170.266 20.032C169.685 20.1344 169.327 20.3392 169.19 20.6464C169.088 20.9194 169.003 21.7045 168.934 23.0016C168.866 24.2986 168.866 25.0837 168.934 25.3568C169.037 25.6298 169.344 25.8346 169.856 25.9712C170.436 26.1077 172.177 26.1248 175.078 26.0224C176.922 25.9541 178.116 25.9541 178.662 26.0224C179.209 26.0565 179.567 26.2272 179.738 26.5344C180.045 27.1488 179.755 27.5584 178.867 27.7632C178.082 27.968 176.358 28.1045 173.696 28.1728C170.317 28.3093 168.32 28.1898 167.706 27.8144C167.125 27.4048 166.835 26.0394 166.835 23.7184C166.835 21.568 167.023 19.9978 167.398 19.008ZM180.301 33.9584C180.881 33.7536 181.598 33.7024 182.451 33.8048C183.339 33.9072 183.834 34.0949 183.936 34.368C184.107 34.7776 184.09 35.1189 183.885 35.392C183.714 35.6309 183.322 35.8016 182.707 35.904C182.127 36.0064 181.308 36.0576 180.25 36.0576C178.236 36.0576 177.075 36.1941 176.768 36.4672C176.461 36.8085 176.273 38.737 176.205 42.2528C176.137 45.7344 176.017 47.5946 175.846 47.8336C175.676 48.0725 175.334 48.192 174.822 48.192C174.345 48.192 174.037 48.0725 173.901 47.8336C173.833 47.7312 173.833 46.929 173.901 45.4272C173.969 43.9253 174.089 42.3381 174.259 40.6656C174.43 38.993 174.566 37.9008 174.669 37.3888L174.925 36.4672L171.392 36.7744C168.32 37.0133 166.426 37.1328 165.709 37.1328C164.992 37.0986 164.582 36.8938 164.48 36.5184C164.446 36.2453 164.565 36.0234 164.838 35.8528C165.112 35.648 165.606 35.4602 166.323 35.2896C167.04 35.1189 167.962 34.9824 169.088 34.88C170.249 34.7434 171.699 34.624 173.44 34.5216C177.809 34.2826 180.096 34.0949 180.301 33.9584Z" fill="#29363D"/>
<path d="M117.901 21.6192C118.413 21.5168 118.822 21.4827 119.13 21.5168C119.437 21.5168 119.915 21.6363 120.563 21.8752C120.905 21.9776 121.195 22.0971 121.434 22.2336C121.673 22.3702 121.912 22.5408 122.15 22.7456C122.389 22.9504 122.68 23.2406 123.021 23.616C123.874 24.5035 124.506 25.2374 124.915 25.8176C125.257 26.3296 125.564 26.6027 125.837 26.6368C126.144 26.6368 126.366 26.3979 126.502 25.92C126.844 24.9643 127.492 24.0256 128.448 23.104C129.404 22.1824 130.581 21.7046 131.981 21.6704C133.38 21.6022 134.302 22.0118 134.746 22.8992C134.95 23.3088 135.138 23.616 135.309 23.8208C135.514 24.128 135.804 25.0496 136.179 26.5856C136.282 27.2 136.213 27.8656 135.974 28.5824C135.804 29.1286 135.514 30.1184 135.104 31.552C134.217 34.624 133.312 36.7062 132.39 37.7984C132.083 38.208 131.657 38.7542 131.11 39.4368C130.735 39.9488 130.308 40.3584 129.83 40.6656C129.25 41.007 128.158 41.9115 126.554 43.3792C125.734 44.096 124.984 44.3008 124.301 43.9936C123.96 43.8571 123.789 43.7206 123.789 43.584C123.789 43.4816 123.174 42.7819 121.946 41.4848C120.717 40.1878 119.932 39.2662 119.59 38.72C119.215 38.1056 118.601 37.3035 117.747 36.3136C117.338 35.8016 117.013 35.4091 116.774 35.136C116.57 34.863 116.365 34.5728 116.16 34.2656C115.955 33.9584 115.768 33.6683 115.597 33.3952C115.46 33.1222 115.273 32.7296 115.034 32.2176C114.283 30.8182 113.822 29.3504 113.651 27.8144C113.583 26.9952 113.737 26.1419 114.112 25.2544C114.488 24.367 115.017 23.599 115.699 22.9504C116.416 22.2678 117.15 21.824 117.901 21.6192Z" fill="#FF4F6E"/>
<path d="M72.9088 16.448C75.5371 15.9701 77.2096 15.7483 77.9264 15.7824L78.9504 15.8848V20.6976C78.9504 21.9605 78.9163 22.9675 78.848 23.7184C78.8139 24.4693 78.7286 25.0837 78.592 25.5616C78.4896 26.0395 78.336 26.3296 78.1312 26.432C77.9264 26.5003 77.6534 26.4832 77.312 26.3808C77.039 26.2784 76.8683 26.0053 76.8 25.5616C76.7659 25.0837 76.8 24.0085 76.9024 22.336C77.0048 20.6293 77.0219 19.5371 76.9536 19.0592C76.9195 18.5813 76.7659 18.2912 76.4928 18.1888C75.9467 18.0181 74.4448 18.1717 71.9872 18.6496C70.4171 18.8885 69.359 19.0251 68.8128 19.0592C68.3008 19.0592 67.9595 18.9739 67.7888 18.8032C67.4475 18.2229 67.5158 17.8133 67.9936 17.5744C68.5739 17.3013 70.2123 16.9259 72.9088 16.448ZM81.5104 29.9136C81.8176 29.6064 82.2102 29.5893 82.688 29.8624C83.1659 30.1013 83.439 30.4939 83.5072 31.04C83.5072 31.0741 83.5072 31.1083 83.5072 31.1424C83.5755 31.7568 83.3024 32.1323 82.688 32.2688C82.0736 32.4053 79.872 32.6272 76.0832 32.9344C75.5712 32.9685 75.1787 32.9856 74.9056 32.9856C70.1611 33.3611 67.3622 33.5488 66.5088 33.5488C65.6896 33.5147 65.28 33.2587 65.28 32.7808C65.28 32.3029 65.7408 31.9616 66.6624 31.7568C67.584 31.552 69.5979 31.3472 72.704 31.1424C74.8886 31.0059 76.8512 30.8181 78.592 30.5792C80.367 30.3061 81.3398 30.0843 81.5104 29.9136ZM69.2736 38.5664C69.4784 38.2251 69.7856 38.2592 70.1952 38.6688C70.639 39.1467 70.8438 40.1536 70.8096 41.6896C70.8096 41.792 70.8096 41.9285 70.8096 42.0992C70.8096 42.816 70.7926 43.3109 70.7584 43.584C70.7584 43.8571 70.8096 44.1643 70.912 44.5056C71.0486 44.8469 71.151 45.0517 71.2192 45.12C71.3216 45.1883 71.5776 45.2736 71.9872 45.376C72.3968 45.4443 72.7723 45.4613 73.1136 45.4272C73.455 45.3931 74.0352 45.3589 74.8544 45.3248C75.0592 45.3248 75.2128 45.3077 75.3152 45.2736C77.9094 45.1029 79.616 44.9323 80.4352 44.7616C80.9814 44.6592 81.3056 44.6592 81.408 44.7616C81.5104 44.864 81.5616 45.1883 81.5616 45.7344C81.5616 46.4512 81.3568 46.8949 80.9472 47.0656C80.5376 47.2704 79.5819 47.3557 78.08 47.3216C76.6464 47.3216 74.752 47.424 72.3968 47.6288C69.9734 47.8336 68.7104 47.7995 68.608 47.5264C68.4715 47.2875 68.5056 45.8027 68.7104 43.072C68.9152 40.3413 69.103 38.8395 69.2736 38.5664Z" fill="#29363D"/>
<path d="M18.5984 19.008C18.8373 18.4277 19.0421 18.0864 19.2128 17.984C19.3835 17.8474 19.6565 17.8645 20.032 18.0352C20.544 18.3082 22.2677 18.2912 25.2032 17.984C28.3776 17.6768 30.1184 17.745 30.4256 18.1888C30.528 18.3936 30.5109 18.6666 30.3744 19.008C30.3061 19.2128 30.1355 19.3664 29.8624 19.4688C29.6235 19.537 29.2309 19.5882 28.6848 19.6224C28.1728 19.6565 27.4048 19.6906 26.3808 19.7248C23.7867 19.7589 22.1483 19.8613 21.4656 20.032C20.8853 20.1344 20.5269 20.3392 20.3904 20.6464C20.288 20.9194 20.2027 21.7045 20.1344 23.0016C20.0661 24.2986 20.0661 25.0837 20.1344 25.3568C20.2368 25.6298 20.544 25.8346 21.056 25.9712C21.6363 26.1077 23.3771 26.1248 26.2784 26.0224C28.1216 25.9541 29.3163 25.9541 29.8624 26.0224C30.4085 26.0565 30.7669 26.2272 30.9376 26.5344C31.2448 27.1488 30.9547 27.5584 30.0672 27.7632C29.2821 27.968 27.5584 28.1045 24.896 28.1728C21.5168 28.3093 19.52 28.1898 18.9056 27.8144C18.3253 27.4048 18.0352 26.0394 18.0352 23.7184C18.0352 21.568 18.2229 19.9978 18.5984 19.008ZM31.5008 33.9584C32.0811 33.7536 32.7979 33.7024 33.6512 33.8048C34.5387 33.9072 35.0336 34.0949 35.136 34.368C35.3067 34.7776 35.2896 35.1189 35.0848 35.392C34.9141 35.6309 34.5216 35.8016 33.9072 35.904C33.3269 36.0064 32.5077 36.0576 31.4496 36.0576C29.4357 36.0576 28.2752 36.1941 27.968 36.4672C27.6608 36.8085 27.4731 38.737 27.4048 42.2528C27.3365 45.7344 27.2171 47.5946 27.0464 47.8336C26.8757 48.0725 26.5344 48.192 26.0224 48.192C25.5445 48.192 25.2373 48.0725 25.1008 47.8336C25.0325 47.7312 25.0325 46.929 25.1008 45.4272C25.1691 43.9253 25.2885 42.3381 25.4592 40.6656C25.6299 38.993 25.7664 37.9008 25.8688 37.3888L26.1248 36.4672L22.592 36.7744C19.52 37.0133 17.6256 37.1328 16.9088 37.1328C16.192 37.0986 15.7824 36.8938 15.68 36.5184C15.6459 36.2453 15.7653 36.0234 16.0384 35.8528C16.3115 35.648 16.8064 35.4602 17.5232 35.2896C18.24 35.1189 19.1616 34.9824 20.288 34.88C21.4485 34.7434 22.8992 34.624 24.64 34.5216C29.0091 34.2826 31.296 34.0949 31.5008 33.9584Z" fill="#29363D"/>
<path fill-rule="evenodd" clip-rule="evenodd" d="M0 56H51.2V4.79999H0V6.39999H49.6V54.4H0V56Z" fill="#677880"/>
<path fill-rule="evenodd" clip-rule="evenodd" d="M99.2 6.39999H51.2V54.4H99.2V6.39999ZM49.6 4.79999V56H100.8V4.79999H49.6Z" fill="#677880"/>
<path fill-rule="evenodd" clip-rule="evenodd" d="M148.8 6.39999H100.8V54.4H148.8V6.39999ZM99.2 4.79999V56H150.4V4.79999H99.2Z" fill="#677880"/>
<path fill-rule="evenodd" clip-rule="evenodd" d="M198.4 6.39999H150.4V54.4H198.4V6.39999ZM148.8 4.79999V56H200V4.79999H148.8Z" fill="#677880"/>
<path fill-rule="evenodd" clip-rule="evenodd" d="M249.6 4.79999H198.4V56H249.6V54.4H200V6.39999H249.6V4.79999Z" fill="#677880"/>
<path fill-rule="evenodd" clip-rule="evenodd" d="M25.6 65.6H-22.4V113.6H25.6V65.6ZM-24 64V115.2H27.2V64H-24Z" fill="#677880"/>
<path fill-rule="evenodd" clip-rule="evenodd" d="M75.2 65.6H27.2V113.6H75.2V65.6ZM25.6 64V115.2H76.8V64H25.6Z" fill="#677880"/>
<path fill-rule="evenodd" clip-rule="evenodd" d="M124.8 65.6H76.8V113.6H124.8V65.6ZM75.2 64V115.2H126.4V64H75.2Z" fill="#677880"/>
<path fill-rule="evenodd" clip-rule="evenodd" d="M174.4 65.6H126.4V113.6H174.4V65.6ZM124.8 64V115.2H176V64H124.8Z" fill="#677880"/>
<path fill-rule="evenodd" clip-rule="evenodd" d="M224 65.6H176V113.6H224V65.6ZM174.4 64V115.2H225.6V64H174.4Z" fill="#677880"/>
<path fill-rule="evenodd" clip-rule="evenodd" d="M273.6 65.6H225.6V113.6H273.6V65.6ZM224 64V115.2H275.2V64H224Z" fill="#677880"/>
<path fill-rule="evenodd" clip-rule="evenodd" d="M249.6 1.6H0V0H249.6V1.6ZM249.6 6.4H0V4.8H249.6V6.4Z" fill="#677880"/>
<path fill-rule="evenodd" clip-rule="evenodd" d="M249.6 115.2H0V113.6H249.6V115.2ZM249.6 120H0V118.4H249.6V120Z" fill="#677880"/>
<path fill-rule="evenodd" clip-rule="evenodd" d="M249.6 56H0V54.4H249.6V56ZM249.6 60.8H0V59.2H249.6V60.8ZM249.6 65.6H0V64H249.6V65.6Z" fill="#677880"/>
</g>
<defs>
<clipPath id="clip0_73192_4222">
<rect width="249.6" height="120" fill="white"/>
</clipPath>
</defs>
</svg>
