<svg width="2503" height="2407" viewBox="0 0 2503 2407" fill="none" xmlns="http://www.w3.org/2000/svg">
<rect width="2503" height="2407" fill="white"/>
<path d="M294 1262C479 1280.5 1003 816.5 648.5 1319.5C294 1822.5 621.5 1598 954.5 1383C1287.5 1168 1400 -449.5 1115 680.5C830 1810.5 851.5 880 1051.5 1383C1251.5 1886 1875 487 1560 1077.5C1766 1516.5 1893.5 699 1536 1238C1178.5 1777 570 1880.5 1163.5 1756C1757 1631.5 1669.5 978 1481.5 1698.5C1293.5 2419 633 1958.5 1705.5 1828.5C2778 1698.5 1996.5 1898.5 1905.5 1510.5C1814.5 1122.5 2432.5 762.5 2069 1607.5" stroke="black"/>
</svg>
