<svg width="1973" height="1812" viewBox="0 0 1973 1812" fill="none" xmlns="http://www.w3.org/2000/svg">
<path d="M1 980C186 998.5 710 534.5 355.5 1037.5C1 1540.5 328.5 1316 661.5 1101C994.5 886 1107 -731.5 822 398.5C537 1528.5 558.5 598 758.5 1101C958.5 1604 1582 205 1267 795.5C1473 1234.5 1600.5 417 1243 956C885.5 1495 277 1598.5 870.5 1474C1464 1349.5 1376.5 696 1188.5 1416.5C1000.5 2137 340 1676.5 1412.5 1546.5C2485 1416.5 1703.5 1616.5 1612.5 1228.5C1521.5 840.5 2139.5 480.5 1776 1325.5" stroke="black"/>
</svg>
